<?xml version="1.0" encoding="UTF-8"?>
<!-- Generated by dot version 2.8 (Fri Feb  3 22:38:53 UTC 2006)
     For user: Bill Gates -->
<!-- Title: untitled Pages: 1 -->
<svg width="185pt" height="122pt"
 viewBox = "0 0 185 122"
 xmlns="http://www.w3.org/2000/svg" xmlns:xlink="http://www.w3.org/1999/xlink">
<g id="graph0" class="graph" style="font-family:Times-Roman;font-size:14.00;">
<polygon style="fill:white;stroke:white;" points="-2,124 -2,-2 187,-2 187,124 -2,124"/>
<!-- 1 -->
<g id="node1" class="node">
<ellipse style="fill:none;stroke:black;" cx="45" cy="100" rx="17" ry="17"/>
<text text-anchor="middle" x="45" y="105">1</text>
</g>
<!-- 2 -->
<g id="node3" class="node">
<ellipse style="fill:none;stroke:black;" cx="22" cy="32" rx="17" ry="17"/>
<text text-anchor="middle" x="22" y="37">2</text>
</g>
<!-- 1&#45;&#45;2 -->
<g id="edge2" class="edge">
<path style="fill:none;stroke:black;" d="M40,84C36,73 31,59 28,48"/>
</g>
<!-- 3 -->
<g id="node5" class="node">
<ellipse style="fill:none;stroke:black;" cx="94" cy="46" rx="17" ry="17"/>
<text text-anchor="middle" x="94" y="51">3</text>
</g>
<!-- 1&#45;&#45;3 -->
<g id="edge4" class="edge">
<path style="fill:none;stroke:black;" d="M57,87C65,78 75,67 82,59"/>
</g>
<!-- 3&#45;&#45;2 -->
<g id="edge6" class="edge">
<path style="fill:none;stroke:black;" d="M77,43C66,41 51,38 39,35"/>
</g>
<!-- 4 -->
<g id="node7" class="node">
<ellipse style="fill:none;stroke:black;" cx="163" cy="22" rx="17" ry="17"/>
<text text-anchor="middle" x="163" y="27">4</text>
</g>
<!-- 4&#45;&#45;3 -->
<g id="edge8" class="edge">
<path style="fill:none;stroke:black;" d="M147,28C136,32 121,37 110,40"/>
</g>
</g>
</svg>
