<?xml version="1.0" encoding="UTF-8" standalone="no"?>
<!-- Created with Inkscape (http://www.inkscape.org/) -->
<svg
   xmlns:dc="http://purl.org/dc/elements/1.1/"
   xmlns:cc="http://web.resource.org/cc/"
   xmlns:rdf="http://www.w3.org/1999/02/22-rdf-syntax-ns#"
   xmlns:svg="http://www.w3.org/2000/svg"
   xmlns="http://www.w3.org/2000/svg"
   xmlns:sodipodi="http://sodipodi.sourceforge.net/DTD/sodipodi-0.dtd"
   xmlns:inkscape="http://www.inkscape.org/namespaces/inkscape"
   version="1.0"
   width="1000"
   height="799.24207"
   id="svg2"
   sodipodi:version="0.32"
   inkscape:version="0.45"
   sodipodi:docname="ug_logo.svg"
   inkscape:output_extension="org.inkscape.output.svg.inkscape"
   sodipodi:docbase="C:\Documents and Settings\magul\Pulpit\inne smieci\wikipedia\godła uczelni wyższych\polska\uniwersytet gdański"
   sodipodi:modified="TRUE"
   inkscape:export-filename="C:\Documents and Settings\magul\Pulpit\inne smieci\wikipedia\godła uczelni wyższych\polska\uniwersytet gdański\ug_logo.png"
   inkscape:export-xdpi="90"
   inkscape:export-ydpi="90">
  <metadata
     id="metadata9">
    <rdf:RDF>
      <cc:Work
         rdf:about="">
        <dc:format>image/svg+xml</dc:format>
        <dc:type
           rdf:resource="http://purl.org/dc/dcmitype/StillImage" />
      </cc:Work>
    </rdf:RDF>
  </metadata>
  <sodipodi:namedview
     inkscape:window-height="480"
     inkscape:window-width="640"
     inkscape:pageshadow="2"
     inkscape:pageopacity="0.0"
     guidetolerance="10.0"
     gridtolerance="10.0"
     objecttolerance="10.0"
     borderopacity="1.0"
     bordercolor="#666666"
     pagecolor="#ffffff"
     id="base" />
  <defs
     id="defs4" />
  <g
     transform="matrix(1.0008039,0,0,1.0008039,428.99921,3.4885659)"
     style="stroke:none"
     id="layer1">
    <g
       transform="matrix(0.8032798,0,0,0.8032798,-84.403904,156.49436)"
       style="stroke:none"
       id="g3327">
      <path
         d="M -428.40867,95.248916 L -125.92561,95.449209 L -125.79139,425.23788 C -125.66451,720.59892 511.38545,715.95995 513.82001,425.16713 L 514.28571,89.50504 L 815.33553,95.18927 L 815.33951,497.06919 C 816.07189,894.42292 -427.53911,894.25421 -428.55641,497.02394 L -428.40867,95.248916 z "
         style="fill:#213d82;fill-opacity:1;fill-rule:evenodd;stroke:none;stroke-width:1px;stroke-linecap:butt;stroke-linejoin:miter;stroke-opacity:1"
         id="path2188" />
      <path
         d="M 193.53125,-199.15625 C 51.768175,-199.58815 -90.114084,-141.82425 -90.59375,-24.03125 L -90.6875,429.375 C -89.764446,656.90298 476.22992,665.22594 476.15625,429.90625 L 476.125,95.25 L 177.96875,95.25 L 177.96875,207.53125 L 254.75,208.25 L 254.25,455.5625 C 255.04572,519.93277 134.72911,520.62746 135.28125,455.71875 L 135.28125,-52.4375 C 135.40461,-118.53626 254.51221,-117.3399 254.875,-52.46875 L 254.40625,48.75 L 476.125,48.90625 L 476.84375,-25.21875 C 476.93977,-140.10954 335.29433,-198.72435 193.53125,-199.15625 z M 367.125,109.4375 L 392,150.84375 L 379.75,158.65625 L 401,171.5625 L 414.71875,159.71875 L 403.96875,151.375 L 443.78125,121.25 L 430.3125,197.375 L 302.5625,197.90625 L 287.78125,119.65625 L 328.375,149.21875 L 318.15625,157.3125 L 331.34375,172.34375 L 352.3125,159.1875 L 339.6875,150.3125 L 367.125,109.4375 z M 328.75,212.6875 L 403.96875,212.71875 L 391.90625,249.8125 L 435.625,241.5625 L 435.3125,297.59375 L 391.8125,288.8125 L 403.9375,326.5625 L 328.53125,326.78125 L 340.03125,289.15625 L 297.21875,297.6875 L 297.125,241.34375 L 339.84375,249.96875 L 328.75,212.6875 z M 328.40625,345.09375 L 403.625,345.125 L 391.5625,382.25 L 435.28125,374 L 434.96875,430.03125 L 391.46875,421.21875 L 403.59375,459 L 328.1875,459.21875 L 339.6875,421.59375 L 296.875,430.125 L 296.78125,373.78125 L 339.5,382.375 L 328.40625,345.09375 z "
         style="fill:#213d82;fill-opacity:1;fill-rule:evenodd;stroke:none;stroke-width:1px;stroke-linecap:butt;stroke-linejoin:miter;stroke-opacity:1"
         id="path2218" />
    </g>
  </g>
</svg>
